<svg fill="none" xmlns="http://www.w3.org/2000/svg">

  <svg id="time"
    viewBox="0 0 16 16" fill="none">
    <path fill="currentColor" stroke="currentColor" stroke-width=".25" d="M8.043 1.042a7 7 0 1 0 0 14 7 7 0 0 0 0-14Zm0 13.023a6.036 6.036 0 1 1 6.036-6.023 6.043 6.043 0 0 1-6.036 6.036v-.013Zm3.256-6.023a.482.482 0 0 1-.482.482H8.043a.482.482 0 0 1-.482-.482v-3.96a.482.482 0 0 1 .964 0V7.56h2.311a.482.482 0 0 1 .463.482Z"/>
  </svg>

  <svg id="comment"
    viewBox="0 0 18 18" fill="none">
    <path fill="currentColor" stroke="currentColor" stroke-width=".25" d="M13.45 12.73v-5.5a2.63 2.63 0 0 0-2.63-2.62h-7.5V3.9A3.87 3.87 0 0 1 7.19.03h6.86a3.87 3.87 0 0 1 3.88 3.87v5a3.88 3.88 0 0 1-3.84 3.87l-.63-.04Zm-2.63-9.37a3.87 3.87 0 0 1 3.88 3.87v4.17a2.62 2.62 0 0 0 1.97-2.5v-5a2.63 2.63 0 0 0-2.63-2.62H7.18A2.62 2.62 0 0 0 4.6 3.37l6.21-.01ZM7.4 17.98a1.67 1.67 0 0 1-1.38-.73l-.75-1.06a.27.27 0 0 0-.24-.12H4a3.88 3.88 0 0 1-3.92-3.88V7.23A3.88 3.88 0 0 1 4 3.36h6.87a3.87 3.87 0 0 1 3.87 3.87v4.96a3.87 3.87 0 0 1-3.87 3.88h-1.1a.28.28 0 0 0-.24.12l-.75 1.06a1.67 1.67 0 0 1-1.39.73ZM4 4.6a2.63 2.63 0 0 0-2.67 2.62v4.96A2.63 2.63 0 0 0 4 14.83h1.02a1.53 1.53 0 0 1 1.26.66l.75 1.01a.45.45 0 0 0 .36.2.45.45 0 0 0 .37-.2l.74-1.06a1.53 1.53 0 0 1 1.27-.6h1.05a2.63 2.63 0 0 0 2.63-2.63V7.23a2.63 2.63 0 0 0-2.63-2.62H4ZM4.48 9a.78.78 0 1 0 0 1.57.78.78 0 0 0 0-1.57ZM7.4 9a.78.78 0 1 0-.03 1.57A.78.78 0 0 0 7.4 9Zm2.9 0a.78.78 0 1 0 0 1.57.78.78 0 0 0 0-1.57Z"/>
  </svg>
</svg>

</svg>
