<!-- this comment is needed so that Vue does not inlining svg in the production build                                                                                                                                                                                                                                                                                                                                                                                                                                                                                                                                                                                                                                                                                                                                                                                                                                                                                                                                                                                                                                                                                                                                                                                                                                                                                                                                                                                                                                                                                                                                                                                                                                                                                                                                                                                                                                                                                                                                                                                                                                                                                                                                                                                                                                                                                                                                                                                                                                                                                                                                                                                                                                                                                                                                                                                                                                                                                                                                                                                                                                                                                                                                                                                                                                                                                                                                                                                                                                                                                                                                                                                                                                                                                                                                                                     -->
<svg fill="none" xmlns="http://www.w3.org/2000/svg">

  <symbol id="logo"
    viewBox="0 0 150 28" fill="currentColor">
    <path d="M13.64 27.27c7.53 0 13.63-6.1 13.63-13.63V4.09A4.1 4.1 0 0 0 23.18 0h-8.86v5.98c0 1.37.08 2.78.8 3.94a6.82 6.82 0 0 0 4.7 3.16l.27.04a.55.55 0 0 1 0 1.03l-.27.04a6.82 6.82 0 0 0-5.63 5.63l-.04.27a.55.55 0 0 1-1.03 0l-.04-.27a6.82 6.82 0 0 0-3.16-4.7c-1.16-.72-2.57-.8-3.94-.8H.02a13.64 13.64 0 0 0 13.62 12.95Z"/>
    <path d="M0 12.95h5.98c1.37 0 2.78-.08 3.94-.8a6.83 6.83 0 0 0 2.24-2.23c.71-1.16.8-2.57.8-3.94V0H4.08A4.1 4.1 0 0 0 0 4.1v8.85ZM31.67 1.36a1.36 1.36 0 1 1-2.72 0 1.36 1.36 0 0 1 2.72 0Zm112.68 6.9c3.81 0 5.65 2.66 5.65 5.74v5.8h-3.99v-5.11c0-1.4-.5-2.55-1.97-2.55-1.46 0-1.95 1.15-1.95 2.55v5.1h-4v-5.1c0-1.4-.48-2.55-1.94-2.55s-1.97 1.15-1.97 2.55v5.1h-4V14c0-3.08 1.85-5.74 5.66-5.74 2.08 0 3.59.82 4.28 2.18.73-1.36 2.32-2.18 4.23-2.18Zm-21.33 7.98c1.28 0 1.84-1.18 1.84-2.57V8.7h3.99v5.45c0 3.27-1.9 5.97-5.83 5.97-3.92 0-5.83-2.7-5.83-5.97V8.7h3.99v4.97c0 1.4.55 2.57 1.84 2.57Zm-11.7 3.9c-2.5 0-4.12-.86-5.07-2.55l2.88-1.62c.4.71 1 1.07 2 1.07.81 0 1.2-.29 1.2-.64 0-1.36-5.86.02-5.86-4.29 0-2.08 1.77-3.77 4.79-3.77 2.63 0 4.07 1.29 4.72 2.53l-2.88 1.64c-.25-.66-1-1.06-1.75-1.06-.58 0-.9.24-.9.57 0 1.38 5.86.12 5.86 4.29 0 2.33-2.28 3.84-4.99 3.84ZM97.4 24.9h-4V14.22c0-3.4 2.56-5.86 6.1-5.86 3.46 0 6.1 2.64 6.1 5.86 0 3.55-2.35 5.9-5.88 5.9-.82 0-1.64-.24-2.32-.62v5.4Zm2.1-8.52c1.27 0 2.1-.97 2.1-2.13 0-1.17-.84-2.13-2.1-2.13-1.26 0-2.1.96-2.1 2.13 0 1.16.84 2.13 2.1 2.13ZM89.4 7.52c-1.3 0-2.4-1.09-2.4-2.4 0-1.3 1.1-2.4 2.4-2.4 1.3 0 2.4 1.1 2.4 2.4 0 1.31-1.1 2.4-2.4 2.4Zm-2 1.18h4v11.1h-4V8.7Zm-7.65 11.42a5.96 5.96 0 0 1-6.1-5.9 5.95 5.95 0 0 1 6.1-5.88c3.46 0 6.1 2.66 6.1 5.88 0 3.24-2.64 5.9-6.1 5.9Zm0-3.75c1.27 0 2.1-.97 2.1-2.13 0-1.17-.83-2.15-2.1-2.15-1.26 0-2.1.98-2.1 2.15 0 1.16.84 2.13 2.1 2.13Zm-13.63 8.86c-2.74 0-4.74-1.22-5.76-3.4l3.3-1.77a2.47 2.47 0 0 0 2.4 1.53c1.44 0 2.4-.91 2.5-2.5-.53.46-1.37.81-2.63.81a5.52 5.52 0 0 1-5.57-5.7 5.92 5.92 0 0 1 6.1-5.84c3.54 0 6.1 2.47 6.1 5.86v4.4c0 3.99-2.78 6.6-6.44 6.6Zm.27-9.08c1.2 0 2.1-.82 2.1-2.04 0-1.2-.9-2-2.1-2-1.17 0-2.1.8-2.1 2 0 1.22.93 2.04 2.1 2.04Zm-12.8 3.97a5.96 5.96 0 0 1-6.09-5.9 5.95 5.95 0 0 1 6.1-5.88c3.45 0 6.09 2.66 6.09 5.88 0 3.24-2.64 5.9-6.1 5.9Zm0-3.75c1.27 0 2.11-.97 2.11-2.13 0-1.17-.84-2.15-2.1-2.15-1.27 0-2.11.98-2.11 2.15 0 1.16.84 2.13 2.1 2.13ZM40.25 4.81v11.2h6.6v3.78h-7.16c-2.52 0-3.54-1.33-3.54-3.44V4.81h4.1Z"/>
  </symbol>

  <symbol id="user"
    viewBox="0 0 20 20" fill="currentColor">
    <path d="M19.8542 10A9.854 9.854 0 0 0 10.8704.1606 9.8543 9.8543 0 0 0 3.2442 17.15l.3575.3117h.055c.1283.1191.275.22.4125.33.1375.11.2016.1558.3025.22.144.1062.294.2041.4492.2933l.3116.1925c.1559.0917.3209.1742.4859.2567l.3208.1558.5042.2108.3391.1284.5133.165.3942.1008.4767.11.5133.0733.3942.055c.3117 0 .6233.0459.9167.0459.2933 0 .6233 0 .9166-.0459l.3942-.055.5133-.0733.4767-.11.4033-.11.5042-.1558.3758-.0825.495-.2109.33-.1558.4767-.2567.3116-.1925.4492-.2841.3025-.2292c.1375-.11.2842-.2108.4125-.33h.055l.3575-.3117A9.7983 9.7983 0 0 0 19.8542 10ZM1.5209 10a8.4791 8.4791 0 1 1 16.9583 0 8.3967 8.3967 0 0 1-2.2917 5.775A6.9845 6.9845 0 0 0 6.384 13.04a6.9843 6.9843 0 0 0-2.5715 2.735A8.3967 8.3967 0 0 1 1.5208 10Zm13.4566 6.8567-.3575.2475-.2567.1466a8.1168 8.1168 0 0 1-1.4208.6875l-.2933.11-.3942.1192-.3575.0917-.3667.0733-.4491.0733H8.9183l-.4491-.0733-.3667-.0825-.3575-.0917-.3941-.1191-.2842-.1009a9.0634 9.0634 0 0 1-1.4392-.6966l-.2108-.1375-.3575-.2475a.995.995 0 0 0-.1559-.1192 5.6195 5.6195 0 0 1 5.1334-3.3336 5.6197 5.6197 0 0 1 5.1333 3.3336.9996.9996 0 0 0-.1925.1192ZM10 11.3567a3.8956 3.8956 0 0 0 3.6084-2.405 3.896 3.896 0 0 0-6.8513-3.6361 3.8958 3.8958 0 0 0-.6438 2.1727A3.8959 3.8959 0 0 0 10 11.3842v-.0275ZM10 4.94a2.5208 2.5208 0 1 1-2.5117 2.5483A2.5117 2.5117 0 0 1 10 4.9767V4.94Z"/>
  </symbol>

</svg>
