<svg fill="none" xmlns="http://www.w3.org/2000/svg">
  <svg id="search"
    viewBox="0 0 12 12" fill="none">
    <path d="M11.6 10.3 9.7 8.6a5.3 5.3 0 1 0-1.3 1.2l2 1.8.6.2a.8.8 0 0 0 .6-.2.9.9 0 0 0 0-1.3ZM5.5 9.1a3.7 3.7 0 1 1 0-7.5 3.7 3.7 0 0 1 0 7.5Z" fill="currentColor"/>
  </svg>
  
  <svg id="arrow"
    viewBox="0 0 10 6" fill="none">
    <path d="M5 5.5a.7.7 0 0 1-.5-.2l-4-4a.7.7 0 1 1 1-1L5 4 8.5.3a.7.7 0 1 1 1 1l-4 4a.7.7 0 0 1-.5.2Z" fill="currentColor"/>
  </svg>

  <svg id="check"
    viewBox="0 0 12 9" fill="none">
    <path d="M10.37.54 4.8 6.11 1.57 2.88a.83.83 0 0 0-1.42.58c0 .22.09.43.24.59l3.83 3.83a.83.83 0 0 0 1.17 0l6.15-6.15A.83.83 0 1 0 10.37.54Z" fill="currentColor"/>
  </svg>

  <svg id="plus"
    viewBox="0 0 12 12" fill="none">
    <path d="M11 6.833H6.833V11a.833.833 0 1 1-1.666 0V6.833H1a.833.833 0 1 1 0-1.666h4.167V1a.833.833 0 1 1 1.666 0v4.167H11a.833.833 0 1 1 0 1.666Z" fill="currentColor"/>
  </svg>

  <svg id="search-empty"
    viewBox="0 0 34 42" fill="currentColor">
    <path d="M27.772 41.604H6.228a5.942 5.942 0 0 1-5.941-5.941V6.337A5.942 5.942 0 0 1 6.228.396h13.206a3.949 3.949 0 0 1 2.799 1.169l10.35 10.484a3.93 3.93 0 0 1 1.13 2.76v20.854a5.942 5.942 0 0 1-5.941 5.941ZM6.228 3.271a3.067 3.067 0 0 0-3.066 3.066v29.326a3.067 3.067 0 0 0 3.066 3.066h21.544a3.066 3.066 0 0 0 3.066-3.066V14.809a1.131 1.131 0 0 0-.306-.747L20.182 3.577a1.055 1.055 0 0 0-.748-.306H6.228Z"/>
    <path d="M32.218 15.73h-6.363a7.398 7.398 0 0 1-7.398-7.38V1.833a1.419 1.419 0 0 1 .46-1.054 1.399 1.399 0 0 1 1.188-.306c.787.139 1.51.52 2.07 1.092l10.35 10.484c.518.53.877 1.194 1.035 1.917a1.419 1.419 0 0 1-1.4 1.725l.058.038ZM21.332 4.746V8.35a4.523 4.523 0 0 0 4.523 4.504h3.488l-8.011-8.107ZM25.146 31.043l-3.987-3.833a7.417 7.417 0 0 0 1.4-4.293 7.666 7.666 0 1 0-3.489 6.344l4.102 3.833a1.437 1.437 0 0 0 1.564.285 1.437 1.437 0 0 0 .41-2.336ZM10.33 22.917a4.677 4.677 0 1 1 4.753 4.676 4.695 4.695 0 0 1-4.753-4.676Z"/>
  </svg>

</svg>
