<!-- this comment is needed so that Vue does not inlining svg in the production build                                                                                                                                                                                                                                                                                                                                                                                                                                                                                                                                                                                                                                                                                                                                                                                                                                                                                                                                                                                                                                                                                                                                                                                                                                                                                                                                                                                                                                                                                                                                                                                                                                                                                                                                                                                                                                                                                                                                                                                                                                                                                                                                                                                                                                                                                                                                                                                                                                                                                                                                                                                                                                                                                                                                                                                                                                                                                                                                                                                                                                                                                                                                                                                                                                                                                                                                                                                                                                                                                                                                                                                                                                                                                                                                                                     -->
<svg fill="none" xmlns="http://www.w3.org/2000/svg">
  <svg id="search"
    viewBox="0 0 12 12" fill="none">
    <path d="M11.6 10.3 9.7 8.6a5.3 5.3 0 1 0-1.3 1.2l2 1.8.6.2a.8.8 0 0 0 .6-.2.9.9 0 0 0 0-1.3ZM5.5 9.1a3.7 3.7 0 1 1 0-7.5 3.7 3.7 0 0 1 0 7.5Z" fill="currentColor"/>
  </svg>
  
  <svg id="arrow"
    viewBox="0 0 10 6" fill="none">
    <path d="M5 5.5a.7.7 0 0 1-.5-.2l-4-4a.7.7 0 1 1 1-1L5 4 8.5.3a.7.7 0 1 1 1 1l-4 4a.7.7 0 0 1-.5.2Z" fill="currentColor"/>
  </svg>

  <svg id="check"
    viewBox="0 0 12 9" fill="none">
    <path d="M10.37.54 4.8 6.11 1.57 2.88a.83.83 0 0 0-1.42.58c0 .22.09.43.24.59l3.83 3.83a.83.83 0 0 0 1.17 0l6.15-6.15A.83.83 0 1 0 10.37.54Z" fill="currentColor"/>
  </svg>

  <svg id="plus"
    viewBox="0 0 12 12" fill="none">
    <path d="M11 6.833H6.833V11a.833.833 0 1 1-1.666 0V6.833H1a.833.833 0 1 1 0-1.666h4.167V1a.833.833 0 1 1 1.666 0v4.167H11a.833.833 0 1 1 0 1.666Z" fill="currentColor"/>
  </svg>

</svg>
